# xmcd
#
# Track frame offsets:
#	150
#	15708
#	33663
#	50053
#	65850
#	82940
#	97295
#	113510
#	126110
#	142983
#	156275
#	171565
#	187158
#	198610
#
# Disc length: 2862 seconds
#
# Revision: 1
# Processed by: cddbd v1.5.2PL0 Copyright (c) Steve Scherf et al.
# Submitted via: audiograbber 1.83.01
#
DISCID=d30b2c0e
DTITLE=Various Artist - Spotlight On Hits 19
DYEAR=1900
DGENRE=Country
TTITLE0=Toby Keith - I Wish I Didn't Know Now
TTITLE1=Collin Raye - Little Rock
TTITLE2=Brooks and Dunn - That Ain't No Way To Go
TTITLE3=Kathy Mattea - Walking Away A Winner
TTITLE4=Lorrie Morgan - My Night To Howl
TTITLE5=Mark Chesnutt - Woman, Sensuous Woman
TTITLE6=Jesse Hunter - By the Way She's Lookin'
TTITLE7=Ken Mellons - Lookin' In The Same Direction
TTITLE8=Aaron Tippin - Whole Lotta Love on the Line
TTITLE9=John and Audrey Wiggins - Falling Out Of Love
TTITLE10=Suzy Bogguss - You wouldn't say that to a stranger
TTITLE11=Charlie Major - Nobody Gets Too Much Love
TTITLE12=Pirates of the Mississippi - Save The Wild Life
TTITLE13=John Anderson - Wish I could Have Been There
EXTD=
EXTT0=
EXTT1=
EXTT2=
EXTT3=
EXTT4=
EXTT5=
EXTT6=
EXTT7=
EXTT8=
EXTT9=
EXTT10=
EXTT11=
EXTT12=
EXTT13=
PLAYORDER=
